# xmcd
# Track frame offsets:
# 150
# 13909
# 27185
# 38645
# 48222
# 62192
# 74050
# 88185
# 98115
# 117470
# 139292
# 153780
# 167440
# 182152
#
# Disc length: 2625 seconds
# Revision: 0
# Processed by: cddbd v1.4PL0 Copyright (c) Steve Scherf et al.
# Submitted via: VisiTrax 2.9.6.190 - For more info visit www.synapsa.com
#
DISCID=be0a3f0e
DTITLE=Johnny Lee - Crystal Records Presents Johnny Lee
DYEAR=1997
DGENRE=
TTITLE0=One In A Million
TTITLE1=Too Damn Old
TTITLE2=Be There For Me Baby
TTITLE3=Red Sails In The Sunset
TTITLE4=Bet Your Heart On Me
TTITLE5=Sometimes
TTITLE6=Down and Dirty
TTITLE7=Pickin' Up Strangers
TTITLE8=Sea Cruise
TTITLE9=Cherokee Fiddle
TTITLE10=Them Highways Run Forever
TTITLE11=Stay All Night, Stay A Little Longer
TTITLE12=Prisoner Of Hope
TTITLE13=Looking For Love
EXTD=The Un-Released Performances Recorded Live At Gilley's World Famous Ni
EXTD=ght Club, Pasedena Texas
EXTT0=
EXTT1=
EXTT2=
EXTT3=
EXTT4=
EXTT5=
EXTT6=
EXTT7=
EXTT8=
EXTT9=
EXTT10=
EXTT11=
EXTT12=
EXTT13=
PLAYORDER=
